<svg id="Layer_2" data-name="Layer 2" xmlns="http://www.w3.org/2000/svg" width="150" height="133.385" viewBox="0 0 150 133.385">
  <g id="Layer_6" data-name="Layer 6">
    <path id="Path_116" data-name="Path 116" d="M46.34,24.315c-.41-1.58.57-1.653,1.463-.995,1.155.863,1.931,2.165,3.027,3.115,3.32,2.925,6.8-1.331,4.2-3.744-1.828-1.7-3.539-3.1-3.569-5.426V15.35h3.32v.293a2.179,2.179,0,0,0,.249,1.214,9.945,9.945,0,0,0,3.73,3.305c5.382,3.671,2.735,11.145-3.349,12.212A7.123,7.123,0,0,1,48.1,29.551,8.117,8.117,0,0,1,47,26.275,19.7,19.7,0,0,0,46.34,24.315Z" transform="translate(21.391 7.1)" fill="#808285" fill-rule="evenodd"/>
    <path id="Path_117" data-name="Path 117" d="M54.806,12.63v3.978h-6V12.63h6Z" transform="translate(22.577 5.842)" fill="#6d6f71" fill-rule="evenodd"/>
    <path id="Path_118" data-name="Path 118" d="M63.091,5.177,53.833,0h0L44.56,5.177l5.017,13.295h8.5Z" transform="translate(20.612)" fill="#00aeee" fill-rule="evenodd"/>
    <path id="Path_119" data-name="Path 119" d="M45.11,7.284l5.777-5.777L53.578,0h0l1.916,1.068-9.243,9.243Z" transform="translate(20.866)" fill="#6d6f71" fill-rule="evenodd"/>
    <path id="Path_120" data-name="Path 120" d="M46.66,12.49,57.41,1.74l2.676,1.492L47.8,15.532Z" transform="translate(21.583 0.805)" fill="#6d6f71" fill-rule="evenodd"/>
    <path id="Path_121" data-name="Path 121" d="M48.79,16.354,60.549,4.58l-2.53,6.713-5.046,5.06H48.79Z" transform="translate(22.568 2.119)" fill="#6d6f71" fill-rule="evenodd"/>
    <path id="Path_122" data-name="Path 122" d="M48.74,22.506a9.609,9.609,0,0,1,1.623-.512,5.163,5.163,0,0,1,3.145.161h0l69.618,29.661h-6.465L52.557,24.51a2.34,2.34,0,0,0-1.068-.132,3.832,3.832,0,0,1-1.828-.936,9.3,9.3,0,0,1-.921-.936Z" transform="translate(22.545 10.094)" fill="#a7a9ac"/>
    <path id="Path_123" data-name="Path 123" d="M2,51.183,67.61,23.19a8.644,8.644,0,0,0,.8,2.413L8.45,51.183Z" transform="translate(0.925 10.727)" fill="#a7a9ac"/>
    <path id="Path_124" data-name="Path 124" d="M0,42.33H150v71.475H105.684v-2.223H95.754v2.223h-15.8v-2.223H70.042v2.223h-15.8v-2.223H44.316v2.223H0Z" transform="translate(0 19.58)" fill="#00aeee" fill-rule="evenodd"/>
    <rect id="Rectangle_1" data-name="Rectangle 1" width="3.51" height="65.42" transform="translate(5.251 63.943)" fill="#2e3192"/>
    <rect id="Rectangle_2" data-name="Rectangle 2" width="3.51" height="65.42" transform="translate(12.037 63.943)" fill="#2e3192"/>
    <rect id="Rectangle_3" data-name="Rectangle 3" width="3.51" height="65.42" transform="translate(18.838 63.943)" fill="#2e3192"/>
    <rect id="Rectangle_4" data-name="Rectangle 4" width="3.51" height="65.42" transform="translate(25.639 63.943)" fill="#2e3192"/>
    <rect id="Rectangle_5" data-name="Rectangle 5" width="3.51" height="65.42" transform="translate(32.44 63.943)" fill="#2e3192"/>
    <rect id="Rectangle_6" data-name="Rectangle 6" width="3.51" height="65.42" transform="translate(39.24 63.943)" fill="#2e3192"/>
    <rect id="Rectangle_7" data-name="Rectangle 7" width="3.51" height="65.42" transform="translate(46.041 63.943)" fill="#2e3192"/>
    <rect id="Rectangle_8" data-name="Rectangle 8" width="3.51" height="65.42" transform="translate(52.842 63.943)" fill="#2e3192"/>
    <rect id="Rectangle_9" data-name="Rectangle 9" width="3.51" height="65.42" transform="translate(59.643 63.943)" fill="#2e3192"/>
    <rect id="Rectangle_10" data-name="Rectangle 10" width="3.51" height="65.42" transform="translate(66.444 63.943)" fill="#2e3192"/>
    <rect id="Rectangle_11" data-name="Rectangle 11" width="3.51" height="65.42" transform="translate(73.245 63.943)" fill="#2e3192"/>
    <rect id="Rectangle_12" data-name="Rectangle 12" width="3.51" height="65.42" transform="translate(80.046 63.943)" fill="#2e3192"/>
    <rect id="Rectangle_13" data-name="Rectangle 13" width="3.51" height="65.42" transform="translate(86.847 63.943)" fill="#2e3192"/>
    <rect id="Rectangle_14" data-name="Rectangle 14" width="3.51" height="65.42" transform="translate(93.648 63.943)" fill="#2e3192"/>
    <rect id="Rectangle_15" data-name="Rectangle 15" width="3.51" height="65.42" transform="translate(100.449 63.943)" fill="#2e3192"/>
    <rect id="Rectangle_16" data-name="Rectangle 16" width="3.51" height="65.42" transform="translate(107.249 63.943)" fill="#2e3192"/>
    <rect id="Rectangle_17" data-name="Rectangle 17" width="3.51" height="65.42" transform="translate(114.05 63.943)" fill="#2e3192"/>
    <rect id="Rectangle_18" data-name="Rectangle 18" width="3.51" height="65.42" transform="translate(120.851 63.943)" fill="#2e3192"/>
    <rect id="Rectangle_19" data-name="Rectangle 19" width="3.51" height="65.42" transform="translate(127.652 63.943)" fill="#2e3192"/>
    <rect id="Rectangle_20" data-name="Rectangle 20" width="3.51" height="65.42" transform="translate(134.453 63.943)" fill="#2e3192"/>
    <rect id="Rectangle_21" data-name="Rectangle 21" width="3.51" height="65.42" transform="translate(141.239 63.943)" fill="#2e3192"/>
  </g>
</svg>
