<svg width="307" height="71" viewBox="0 0 307 71" fill="none" xmlns="http://www.w3.org/2000/svg">
<path d="M9.54102 41.2529V48.7573H11.1212V43.672L13.1234 48.0059H14.2094L16.2065 43.672V48.7573H17.7094V41.2529H15.7895L13.6226 45.839L11.4557 41.2529H9.54102Z" fill="#16498E"/>
<path d="M19.377 41.2529V48.7573H25.1314V47.3419H21.0446V45.6691H24.6321V44.2537H21.0446V42.6735H25.0439V41.2529H19.377Z" fill="#16498E"/>
<path d="M31.8849 43.59L32.8835 42.4216C32.5489 42.0047 32.0496 41.7525 31.5504 41.5055C31.0511 41.3408 30.4695 41.1709 29.9702 41.1709C29.2188 41.1709 28.4673 41.3356 27.8857 41.6702C27.3041 42.0047 26.7996 42.504 26.4651 43.0033C26.1305 43.5849 25.9658 44.254 25.9658 45.0055C25.9658 45.6694 26.1305 46.3385 26.4651 46.9202C26.7996 47.5069 27.2989 47.9238 27.8857 48.2533C28.4673 48.5878 29.1364 48.7525 29.8879 48.8349C30.4695 48.7525 30.9739 48.665 31.5555 48.418C32.0548 48.1658 32.4717 47.8312 32.8886 47.4194L31.8901 46.4209C31.643 46.6731 31.3085 46.8327 30.9739 47.0025C30.6394 47.1724 30.3048 47.2547 29.9754 47.2547C29.5585 47.2547 29.1416 47.1724 28.807 46.9202C28.4724 46.7555 28.2254 46.5033 27.9732 46.1687C27.8085 45.7518 27.7261 45.4224 27.7261 44.918C27.7261 44.501 27.8085 44.0841 27.9732 43.7496C28.2254 43.415 28.4724 43.168 28.807 42.9158C29.1416 42.751 29.5585 42.6687 29.9754 42.6687C30.3099 42.6687 30.6393 42.751 31.0563 42.9158C31.3908 43.0805 31.643 43.3327 31.8901 43.5797" fill="#16498E"/>
<path d="M33.8809 41.2529V48.7573H35.636V45.7566H38.9713V48.7573H40.7213V41.2529H38.9713V44.3412H35.636V41.2529H33.8809Z" fill="#16498E"/>
<path d="M47.891 48.7573H49.641L46.4756 41.2529H44.7256L41.4727 48.7573H43.2227L43.8043 47.2544H47.3043L47.8859 48.7573H47.891ZM44.391 45.9213L45.5594 43.0029L46.7278 45.9213H44.391Z" fill="#16498E"/>
<path d="M50.4766 41.2529V48.7573H52.0619V43.9243L55.6442 48.7573H57.2295V41.2529H55.6442V46.0912L51.9795 41.2529H50.4766Z" fill="#16498E"/>
<path d="M60.5641 41.2529H58.8965V48.7573H60.5641V41.2529Z" fill="#16498E"/>
<path d="M67.6521 43.59L68.6507 42.4216C68.2337 42.0047 67.8168 41.7525 67.2352 41.5055C66.7359 41.3408 66.2367 41.1709 65.6499 41.1709C64.8985 41.1709 64.2345 41.3356 63.6477 41.6702C63.0661 42.0047 62.5617 42.504 62.2271 43.0033C61.8926 43.5849 61.7279 44.254 61.6455 45.0055C61.7279 45.6694 61.8977 46.3385 62.2271 46.9202C62.5617 47.5069 62.9786 47.9238 63.5602 48.2533C64.1418 48.5878 64.8933 48.7525 65.5624 48.8349C66.1492 48.7525 66.7308 48.665 67.2301 48.418C67.7293 48.1658 68.2286 47.8312 68.6455 47.4194L67.647 46.4209C67.3999 46.6731 67.0654 46.8327 66.7308 47.0025C66.3962 47.1724 66.0617 47.2547 65.7323 47.2547C65.233 47.2547 64.8984 47.1724 64.5639 46.9202C64.147 46.7555 63.8999 46.5033 63.7301 46.1687C63.5654 45.7518 63.3955 45.4224 63.3955 44.918C63.3955 44.501 63.5602 44.0841 63.7301 43.7496C63.8948 43.415 64.147 43.168 64.5639 42.9158C64.8984 42.751 65.233 42.6687 65.7323 42.6687C66.0668 42.6687 66.3962 42.751 66.7308 42.9158C67.0654 43.0805 67.3999 43.3327 67.647 43.5797" fill="#16498E"/>
<path d="M75.0743 48.7573H76.9067L73.7412 41.2529H71.9912L68.7383 48.7573H70.4883L71.0699 47.2544H74.4875L75.0692 48.7573H75.0743ZM71.5692 45.9213L72.8199 43.0029L73.9883 45.9213H71.5692Z" fill="#16498E"/>
<path d="M77.6572 41.2529V48.7573H82.5778V47.2544H79.4072V41.2529H77.6572Z" fill="#16498E"/>
<path d="M100.501 43.59L101.417 42.4216C101.082 42.0047 100.583 41.7525 100.084 41.5055C99.5846 41.3408 99.0853 41.1709 98.4986 41.1709C97.7471 41.1709 97.078 41.3356 96.414 41.6702C95.8272 42.0047 95.4155 42.504 94.9934 43.0033C94.6588 43.5849 94.4941 44.254 94.4941 45.0055C94.4941 45.6694 94.6588 46.3385 94.9934 46.9202C95.328 47.5069 95.8272 47.9238 96.414 48.2533C96.9956 48.5878 97.6647 48.7525 98.4162 48.8349C98.9978 48.7525 99.5022 48.665 100.084 48.418C100.583 48.1658 101.082 47.8312 101.499 47.4194L100.501 46.4209C100.166 46.6731 99.9191 46.8327 99.5846 47.0025C99.1677 47.1724 98.8331 47.2547 98.5037 47.2547C98.0868 47.2547 97.6699 47.1724 97.3353 46.9202C97.0008 46.7555 96.7486 46.5033 96.5838 46.1687C96.3316 45.7518 96.2493 45.4224 96.2493 44.918C96.2493 44.501 96.3316 44.0841 96.5838 43.7496C96.7486 43.415 97.0008 43.168 97.3353 42.9158C97.6647 42.751 98.0868 42.6687 98.5037 42.6687C98.9206 42.6687 99.25 42.751 99.5846 42.9158C99.9191 43.0805 100.166 43.3327 100.501 43.5797" fill="#16498E"/>
<path d="M102.498 41.2529V48.7573H104.166V45.7566H107.501V48.7573H109.251V41.2529H107.501V44.3412H104.166V41.2529H102.498Z" fill="#16498E"/>
<path d="M110.836 41.2529V48.7573H116.673V47.3419H112.591V45.6691H116.173V44.2537H112.591V42.6735H116.59V41.2529H110.836Z" fill="#16498E"/>
<path d="M118.006 41.2529V48.7573H119.591V43.672L121.511 48.0059H122.679L124.594 43.672V48.7573H126.179V41.2529H124.26L122.093 45.839L119.926 41.2529H118.006Z" fill="#16498E"/>
<path d="M129.514 41.2529H127.847V48.7573H129.514V41.2529Z" fill="#16498E"/>
<path d="M136.601 43.59L137.517 42.4216C137.183 42.0047 136.766 41.7525 136.184 41.5055C135.685 41.3408 135.186 41.1709 134.599 41.1709C133.847 41.1709 133.178 41.3356 132.597 41.6702C131.933 42.0047 131.516 42.504 131.181 43.0033C130.764 43.5849 130.6 44.254 130.6 45.0055C130.6 45.6694 130.764 46.3385 131.099 46.9202C131.516 47.5069 131.933 47.9238 132.519 48.2533C133.101 48.5878 133.77 48.7525 134.522 48.8349C135.103 48.7525 135.608 48.665 136.189 48.418C136.689 48.1658 137.188 47.8312 137.605 47.4194L136.606 46.4209C136.272 46.6731 136.025 46.8327 135.69 47.0025C135.355 47.1724 134.939 47.2547 134.609 47.2547C134.192 47.2547 133.775 47.1724 133.441 46.9202C133.106 46.7555 132.854 46.5033 132.689 46.1687C132.437 45.7518 132.355 45.4224 132.355 44.918C132.355 44.501 132.437 44.0841 132.689 43.7496C132.854 43.415 133.106 43.168 133.441 42.9158C133.77 42.751 134.187 42.6687 134.609 42.6687C135.031 42.6687 135.361 42.751 135.69 42.9158C136.025 43.0805 136.359 43.3327 136.606 43.5797" fill="#16498E"/>
<path d="M144.019 48.7573H145.856L142.604 41.2529H140.854L137.601 48.7573H139.351L139.932 47.2544H143.432L144.014 48.7573H144.019ZM140.519 45.9213L141.687 43.0029L142.856 45.9213H140.519Z" fill="#16498E"/>
<path d="M146.607 41.2529V48.7573H151.523V47.2544H148.275V41.2529H146.607Z" fill="#16498E"/>
<path d="M160.612 43.3378L161.276 42.0047C160.941 41.7525 160.529 41.5055 160.025 41.418C159.526 41.2533 159.027 41.1709 158.44 41.1709C157.606 41.1709 156.854 41.3356 156.355 41.7525C155.856 42.1694 155.604 42.6738 155.521 43.3378C155.604 43.9194 155.686 44.3363 155.938 44.5885C156.273 44.9231 156.607 45.0878 156.937 45.2525C157.354 45.4172 157.771 45.5047 158.105 45.6694C158.522 45.7518 158.857 45.8341 159.104 46.004C159.438 46.1687 159.521 46.3385 159.521 46.5856C159.521 46.8327 159.438 47.0025 159.268 47.1672C159.016 47.2547 158.769 47.3319 158.435 47.3319C158.018 47.3319 157.601 47.2496 157.102 46.9974C156.602 46.8275 156.185 46.5805 155.768 46.1635L155.104 47.5841C155.521 47.9187 156.021 48.2481 156.602 48.418C157.184 48.6702 157.771 48.7525 158.44 48.7525C158.939 48.7525 159.438 48.665 159.943 48.5003C160.36 48.3356 160.689 48.0834 160.941 47.7488C161.193 47.4143 161.358 46.9974 161.358 46.4981C161.358 45.9988 161.193 45.5819 160.941 45.2474C160.689 45.0003 160.36 44.7481 159.943 44.5834C159.526 44.4187 159.191 44.3363 158.774 44.1665C158.357 44.0841 158.023 44.0018 157.776 43.8319C157.529 43.6672 157.359 43.4974 157.359 43.2452C157.359 42.993 157.441 42.8283 157.606 42.7459C157.771 42.6635 158.023 42.5812 158.357 42.5812C158.61 42.5812 159.027 42.6635 159.443 42.8334C159.86 42.9158 160.277 43.168 160.612 43.3327" fill="#16498E"/>
<path d="M164.112 45.5919V41.2529H162.362V45.5919C162.445 46.5904 162.697 47.3419 163.278 47.9287C163.942 48.5103 164.776 48.7625 165.78 48.8448C166.866 48.7625 167.617 48.5103 168.281 47.9287C168.863 47.347 169.115 46.5956 169.115 45.5919V41.2529H167.448V45.5919C167.448 46.1735 167.283 46.5904 167.031 46.8426C166.696 47.1772 166.279 47.3419 165.78 47.3419C165.281 47.3419 164.864 47.172 164.529 46.8426C164.277 46.5956 164.112 46.1787 164.112 45.5919Z" fill="#16498E"/>
<path d="M173.871 41.2529H170.706V48.7573H172.374V46.5904H173.871C174.788 46.5904 175.539 46.3382 176.038 45.839C176.538 45.422 176.79 44.7581 176.872 43.8419C176.79 43.0081 176.538 42.339 176.038 41.922C175.539 41.5051 174.788 41.2529 173.871 41.2529ZM173.789 45.175H172.374V42.6735H173.789C174.206 42.6735 174.623 42.7559 174.87 42.9257C175.122 43.1779 175.205 43.5073 175.205 43.9243C175.205 44.3412 175.117 44.6757 174.87 44.8404C174.623 45.0926 174.206 45.175 173.789 45.175Z" fill="#16498E"/>
<path d="M181.123 41.2529H177.87V48.7573H179.62V46.5904H181.123C182.039 46.5904 182.791 46.3382 183.29 45.839C183.789 45.422 184.041 44.7581 184.041 43.8419C184.041 43.0081 183.789 42.339 183.29 41.922C182.791 41.5051 182.039 41.2529 181.123 41.2529ZM181.041 45.175H179.625V42.6735H181.041C181.458 42.6735 181.875 42.7559 182.127 42.9257C182.379 43.1779 182.461 43.5073 182.461 43.9243C182.461 44.3412 182.374 44.6757 182.127 44.8404C181.875 45.0926 181.463 45.175 181.041 45.175Z" fill="#16498E"/>
<path d="M185.128 41.2529V48.7573H190.043V47.2544H186.878V41.2529H185.128Z" fill="#16498E"/>
<path d="M192.716 41.2529H191.048V48.7573H192.716V41.2529Z" fill="#16498E"/>
<path d="M194.383 41.2529V48.7573H200.214V47.3419H196.133V45.6691H199.715V44.2537H196.133V42.6735H200.132V41.2529H194.383Z" fill="#16498E"/>
<path d="M206.468 43.3378L207.132 42.0047C206.715 41.7525 206.298 41.5055 205.798 41.418C205.299 41.2533 204.795 41.1709 204.296 41.1709C203.374 41.1709 202.71 41.3356 202.211 41.7525C201.629 42.1694 201.377 42.6738 201.377 43.3378C201.377 43.9194 201.542 44.3363 201.794 44.5885C202.046 44.9231 202.376 45.0878 202.793 45.2525C203.209 45.4172 203.544 45.5047 203.961 45.6694C204.378 45.7518 204.707 45.8341 204.959 46.004C205.212 46.1687 205.376 46.3385 205.376 46.5856C205.376 46.8327 205.294 47.0025 205.042 47.1672C204.872 47.2547 204.625 47.3319 204.29 47.3319C203.873 47.3319 203.369 47.2496 202.957 46.9974C202.458 46.8275 202.041 46.5805 201.624 46.1635L200.955 47.5841C201.372 47.9187 201.871 48.2481 202.458 48.418C203.04 48.6702 203.626 48.7525 204.208 48.7525C204.79 48.7525 205.294 48.665 205.711 48.5003C206.21 48.3356 206.545 48.0834 206.792 47.7488C207.044 47.4143 207.126 46.9974 207.126 46.4981C207.126 45.9988 207.044 45.5819 206.792 45.2474C206.457 45.0003 206.21 44.7481 205.793 44.5834C205.376 44.4187 204.959 44.3363 204.625 44.1665C204.208 44.0841 203.873 44.0018 203.626 43.8319C203.374 43.6672 203.209 43.4974 203.209 43.2452C203.209 42.993 203.292 42.8283 203.457 42.7459C203.621 42.6635 203.873 42.5812 204.126 42.5812C204.46 42.5812 204.79 42.6635 205.207 42.8334C205.623 42.9158 206.04 43.168 206.457 43.3327" fill="#16498E"/>
<path d="M216.978 43.59L217.976 42.4216C217.642 42.0047 217.142 41.7525 216.643 41.5055C216.144 41.3408 215.557 41.1709 215.058 41.1709C214.224 41.1709 213.56 41.3356 212.973 41.6702C212.392 42.0047 211.892 42.504 211.558 43.0033C211.228 43.5849 211.059 44.254 211.059 45.0055C211.059 45.6694 211.228 46.3385 211.558 46.9202C211.892 47.5069 212.392 47.9238 212.973 48.2533C213.56 48.5878 214.224 48.7525 214.975 48.8349C215.557 48.7525 216.056 48.665 216.556 48.418C217.142 48.1658 217.559 47.8312 217.976 47.4194L216.978 46.4209C216.726 46.6731 216.391 46.8327 216.062 47.0025C215.727 47.1724 215.392 47.2547 215.063 47.2547C214.646 47.2547 214.229 47.1724 213.895 46.9202C213.56 46.7555 213.313 46.5033 213.061 46.1687C212.896 45.7518 212.809 45.4224 212.809 44.918C212.809 44.501 212.896 44.0841 213.061 43.7496C213.313 43.415 213.56 43.168 213.895 42.9158C214.229 42.751 214.646 42.6687 215.063 42.6687C215.398 42.6687 215.727 42.751 216.062 42.9158C216.396 43.0805 216.726 43.3327 216.978 43.5797" fill="#16498E"/>
<path d="M222.316 41.1709C221.564 41.1709 220.895 41.3356 220.313 41.6702C219.644 42.0047 219.227 42.4216 218.898 43.0033C218.481 43.5849 218.316 44.254 218.316 45.0055C218.316 45.6694 218.481 46.3385 218.898 46.9253C219.233 47.5069 219.649 47.9238 220.313 48.2584C220.895 48.5878 221.564 48.7577 222.316 48.84C223.15 48.7577 223.819 48.5878 224.4 48.2584C224.982 47.9238 225.486 47.5069 225.816 46.9253C226.15 46.3385 226.315 45.6746 226.402 45.0055C226.32 44.254 226.15 43.5849 225.816 43.0033C225.481 42.504 224.982 42.0047 224.4 41.6702C223.819 41.3356 223.15 41.1709 222.316 41.1709ZM222.398 42.6738C222.815 42.6738 223.149 42.7562 223.484 43.0084C223.819 43.1731 224.148 43.4202 224.318 43.7599C224.483 44.1768 224.652 44.5113 224.652 45.0106C224.652 45.4275 224.488 45.8444 224.318 46.1738C224.153 46.5084 223.819 46.843 223.484 47.0077C223.149 47.1724 222.82 47.3422 222.398 47.3422C221.976 47.3422 221.564 47.1775 221.23 47.0077C220.895 46.843 220.561 46.5084 220.396 46.1738C220.144 45.8393 220.061 45.4275 220.061 45.0106C220.061 44.5113 220.149 44.1768 220.396 43.7599C220.561 43.4253 220.895 43.1783 221.23 43.0084C221.564 42.7562 221.894 42.6738 222.398 42.6738Z" fill="#16498E"/>
<path d="M227.647 47.0898C227.395 47.0898 227.23 47.1722 227.066 47.3369C226.901 47.5016 226.813 47.6715 226.813 48.0009C226.813 48.2531 226.901 48.4178 227.066 48.5876C227.23 48.7523 227.4 48.8398 227.647 48.8398C227.894 48.8398 228.064 48.7575 228.234 48.5876C228.399 48.4178 228.481 48.2531 228.481 48.0009C228.481 47.6663 228.399 47.5016 228.234 47.3369C228.069 47.1722 227.9 47.0898 227.647 47.0898Z" fill="#16498E"/>
<path d="M85.1819 46.6986C85.1819 46.4773 85.2128 46.2714 85.2797 46.081C85.3466 45.8905 85.4393 45.7052 85.5679 45.5354C85.6966 45.3655 85.8562 45.2008 86.0415 45.0413C86.2319 44.8869 86.4481 44.7324 86.7003 44.5832C86.5613 44.403 86.4378 44.2332 86.3348 44.0736C86.2319 43.9141 86.1444 43.7648 86.0775 43.6207C86.0106 43.4766 85.9591 43.3376 85.9231 43.2089C85.8922 43.0802 85.8716 42.9516 85.8716 42.8177C85.8716 42.5449 85.9231 42.2876 86.0209 42.0457C86.1187 41.8038 86.2679 41.5979 86.4738 41.4229C86.6797 41.2479 86.9422 41.1089 87.2613 41.006C87.5804 40.903 87.9613 40.8516 88.4143 40.8516C88.8209 40.8516 89.176 40.8876 89.4746 40.9699C89.7731 41.0471 90.015 41.1604 90.2054 41.2994C90.3959 41.4435 90.54 41.6185 90.6326 41.8244C90.7253 42.0354 90.7716 42.267 90.7716 42.5295C90.7716 42.7663 90.7304 42.9824 90.6532 43.178C90.5709 43.3788 90.4525 43.5641 90.2929 43.7442C90.1282 43.9244 89.9275 44.0994 89.6856 44.2641C89.4437 44.4288 89.1606 44.5986 88.8363 44.7633C88.9444 44.8869 89.0576 45.0155 89.1915 45.1494C89.3201 45.2832 89.454 45.417 89.5929 45.5508C89.7319 45.6846 89.8709 45.8185 90.0099 45.9523C90.1488 46.0861 90.2878 46.2096 90.4216 46.3229C90.4731 46.2457 90.5194 46.153 90.5554 46.0552C90.5966 45.9523 90.6326 45.8442 90.6635 45.7361C90.6944 45.6229 90.715 45.5045 90.7356 45.3913C90.7562 45.2729 90.7613 45.1597 90.7613 45.0464V44.8663C90.7613 44.8251 90.7716 44.7891 90.7871 44.7582C90.8025 44.7273 90.8334 44.7016 90.8849 44.681C90.9312 44.6604 91.0032 44.6449 91.0959 44.6346C91.1885 44.6244 91.3069 44.6192 91.451 44.6192C91.5951 44.6192 91.7032 44.6192 91.7907 44.6295C91.8782 44.6295 91.9503 44.6501 92.0018 44.6655C92.0532 44.6861 92.0893 44.7119 92.115 44.7427C92.1356 44.7736 92.1459 44.8199 92.1459 44.8663V45.0516C92.1459 45.2369 92.1304 45.4273 92.1047 45.6177C92.079 45.8082 92.0378 45.9935 91.9863 46.1788C91.9349 46.3589 91.8679 46.5339 91.7907 46.6986C91.7135 46.8633 91.626 47.0177 91.5334 47.167C91.6672 47.2751 91.7856 47.3574 91.8885 47.4295C91.9863 47.5016 92.0738 47.553 92.1407 47.5942C92.2128 47.6354 92.2694 47.6611 92.3157 47.6817C92.3621 47.6971 92.4032 47.7074 92.4341 47.7074H92.5525C92.5885 47.7074 92.6194 47.7229 92.6451 47.7486C92.6657 47.7795 92.6863 47.8258 92.6966 47.8979C92.7069 47.9699 92.7172 48.0729 92.7172 48.2067C92.7172 48.3508 92.7172 48.4641 92.7069 48.5464C92.7018 48.6288 92.6915 48.6905 92.676 48.7266C92.6606 48.7626 92.64 48.7986 92.604 48.8244C92.5731 48.8501 92.5165 48.8707 92.4393 48.8964C92.3621 48.917 92.2694 48.9273 92.1613 48.9273C92.0738 48.9273 91.9863 48.917 91.8937 48.8964C91.801 48.8758 91.6981 48.8347 91.5746 48.7729C91.451 48.7111 91.3121 48.6339 91.1525 48.531C90.9929 48.4332 90.8076 48.3045 90.5966 48.1449C90.4165 48.2685 90.226 48.3817 90.0304 48.4795C89.8349 48.5773 89.6341 48.6596 89.4179 48.7266C89.2069 48.7935 88.9856 48.8449 88.7591 48.881C88.5327 48.917 88.2907 48.9324 88.0334 48.9324C87.776 48.9324 87.5341 48.9119 87.2922 48.8758C87.0503 48.8346 86.8238 48.778 86.6128 48.6957C86.4018 48.6185 86.2062 48.5155 86.0312 48.392C85.8562 48.2685 85.7069 48.1295 85.5782 47.9596C85.4547 47.7949 85.3569 47.6045 85.2849 47.3935C85.2128 47.1824 85.1768 46.9457 85.1768 46.6883M86.7723 46.6163C86.7723 46.7861 86.8032 46.9405 86.865 47.0795C86.9268 47.2185 87.0194 47.342 87.1326 47.4449C87.251 47.5479 87.3952 47.6251 87.5702 47.6817C87.7452 47.7383 87.9407 47.7692 88.1672 47.7692C88.2856 47.7692 88.3988 47.7589 88.5172 47.7383C88.6304 47.7177 88.7437 47.6869 88.8569 47.6508C88.9702 47.6148 89.0731 47.5685 89.1709 47.517C89.2687 47.4655 89.3613 47.4089 89.4488 47.342C89.2738 47.203 89.0988 47.0538 88.9187 46.8942C88.7437 46.7346 88.5687 46.5751 88.3988 46.4155C88.229 46.256 88.0694 46.0964 87.915 45.9369C87.7606 45.7773 87.6216 45.628 87.5032 45.4891C87.3694 45.5766 87.251 45.6641 87.1635 45.7567C87.0709 45.8494 86.9988 45.942 86.9371 46.0347C86.8804 46.1273 86.8341 46.2251 86.8084 46.3229C86.7826 46.4207 86.7672 46.5185 86.7672 46.6214M87.426 42.7457C87.426 42.828 87.4415 42.9104 87.4672 42.9979C87.4929 43.0854 87.5341 43.178 87.5804 43.2758C87.6319 43.3736 87.6937 43.4714 87.7657 43.5795C87.8378 43.6876 87.9253 43.8008 88.0179 43.9295C88.2496 43.806 88.44 43.6876 88.5944 43.5846C88.7488 43.4817 88.8724 43.3788 88.965 43.2758C89.0576 43.178 89.1246 43.0751 89.1657 42.9773C89.2018 42.8795 89.2224 42.7766 89.2224 42.6685C89.2224 42.5758 89.2069 42.4883 89.1709 42.406C89.1349 42.3236 89.0834 42.2516 89.0062 42.1949C88.9341 42.1332 88.8415 42.0869 88.7334 42.0508C88.6253 42.0148 88.4966 41.9994 88.3473 41.9994C88.1826 41.9994 88.0437 42.0199 87.9304 42.056C87.8172 42.092 87.7194 42.1435 87.6474 42.2155C87.5753 42.2824 87.5187 42.3648 87.4826 42.4574C87.4466 42.5501 87.4312 42.6479 87.4312 42.7508" fill="#16498E"/>
<path d="M17.1178 25.6325V29.606L16.9428 29.781H10.8539L10.4112 29.606C10.2362 29.431 10.1487 29.2509 10.1487 28.9884V26.5178H9.17592L8.20312 27.3104V28.9884C8.20312 29.6935 8.47077 30.3112 9.08842 30.8413C9.53107 31.1965 9.96857 31.3715 10.5862 31.3715H17.4678C17.998 31.3715 18.3531 31.1965 18.6156 30.8413C18.8781 30.5788 19.0583 30.2237 19.0583 29.781V25.6325H17.1178ZM14.0296 25.545C13.8546 25.72 13.7671 25.9876 13.7671 26.2501C13.7671 26.5126 13.8546 26.7803 14.0296 26.9553C14.2046 27.1303 14.4722 27.2178 14.7347 27.2178C14.9972 27.2178 15.2649 27.1303 15.4399 26.9553C15.6149 26.7803 15.7075 26.5126 15.7075 26.2501C15.7075 25.9876 15.62 25.72 15.4399 25.545C15.2649 25.37 14.9972 25.2773 14.7347 25.2773C14.4722 25.2773 14.2046 25.3648 14.0296 25.545ZM11.8215 25.545C11.6465 25.72 11.559 25.9876 11.559 26.2501C11.559 26.5126 11.6465 26.7803 11.8215 26.9553C11.9965 27.1303 12.2642 27.2178 12.5267 27.2178C12.7892 27.2178 12.9693 27.1303 13.1443 26.9553C13.4068 26.7803 13.4943 26.5126 13.4943 26.2501C13.4943 25.9876 13.4068 25.72 13.1443 25.545C12.9693 25.37 12.7892 25.2773 12.5267 25.2773C12.2642 25.2773 11.9965 25.3648 11.8215 25.545Z" fill="#16498E"/>
<path d="M20.8232 22.3694V29.7812C20.8232 30.2238 20.9107 30.579 21.2659 30.929C21.621 31.1915 21.971 31.3665 22.3262 31.3665H23.3865V29.776H22.8563L22.7688 29.6885L22.6813 29.601V22.3643H20.8284L20.8232 22.3694Z" fill="#16498E"/>
<path d="M25.853 32.1636C25.678 32.3386 25.5854 32.6063 25.5854 32.8688C25.5854 33.1313 25.6729 33.3989 25.853 33.5739C26.028 33.7489 26.203 33.8364 26.5582 33.8364C26.8258 33.8364 27.0008 33.7489 27.1758 33.5739C27.4434 33.3989 27.5309 33.1313 27.5309 32.8688C27.5309 32.6063 27.4434 32.3386 27.1758 32.1636C27.0008 31.9886 26.8258 31.896 26.5582 31.896C26.203 31.896 26.028 31.9835 25.853 32.1636ZM23.5574 32.1636C23.3824 32.3386 23.2949 32.6063 23.2949 32.8688C23.2949 33.1313 23.3824 33.3989 23.5574 33.5739C23.7324 33.7489 24.0001 33.8364 24.2677 33.8364C24.5354 33.8364 24.7979 33.7489 24.9729 33.5739C25.1479 33.3989 25.2405 33.1313 25.2405 32.8688C25.2405 32.6063 25.153 32.3386 24.9729 32.1636C24.7979 31.9886 24.5302 31.896 24.2677 31.896C24.0052 31.896 23.7376 31.9835 23.5574 32.1636ZM25.503 25.457V29.6931H23.2949V31.2835H25.853C26.3832 31.2835 26.7332 31.1085 27.0883 30.7534C27.3508 30.3982 27.4434 30.0482 27.4434 29.6931V25.457H25.503Z" fill="#16498E"/>
<path d="M32.6506 29.6934L32.1205 29.7809C31.7653 29.7809 31.5028 29.6059 31.2352 29.3382C31.0602 29.0706 30.9727 28.7206 30.9727 28.2779C30.9727 27.8353 31.0602 27.4801 31.2352 27.3051C31.4102 27.0426 31.6778 26.9551 31.9403 26.9551C32.2028 26.9551 32.2903 27.0426 32.4705 27.1301L32.6455 27.6551V29.6882L32.6506 29.6934ZM32.208 32.0765C31.8528 32.4316 31.3278 32.6066 30.6175 32.6066L30.0874 32.5191H29.9124V33.2243L30.7102 34.1919H31.0602C32.033 34.1919 32.8256 33.9294 33.4433 33.3993C34.2359 32.7816 34.5911 31.8963 34.5911 30.7537V27.6654C34.5911 26.8728 34.3285 26.2551 33.7109 25.9051C33.2683 25.55 32.6506 25.375 31.9455 25.375C31.0602 25.375 30.355 25.6375 29.8249 26.2551C29.2947 26.7853 29.0322 27.4904 29.0322 28.2831C29.0322 29.0757 29.2999 29.6934 29.7374 30.311C30.2675 31.0162 30.9727 31.3713 31.8528 31.3713C32.1205 31.3713 32.383 31.3713 32.6455 31.2838C32.5528 31.6338 32.3778 31.9015 32.2028 32.0765" fill="#16498E"/>
<path d="M36.1826 22.3694V29.7812C36.1826 30.2238 36.3576 30.579 36.7128 30.929C36.9753 31.1915 37.3304 31.3665 37.7731 31.3665H38.7459V29.776H38.3032L38.1282 29.6885V22.3643H36.1878L36.1826 22.3694Z" fill="#16498E"/>
<path d="M44.2121 29.7806C43.9496 30.0482 43.682 30.1357 43.4195 30.1357C42.8018 30.1357 42.5394 29.6056 42.5394 28.4578C42.5394 28.0151 42.6268 27.6651 42.8018 27.3975C42.9768 27.135 43.157 27.0423 43.507 27.0423C43.7746 27.0423 43.9496 27.1298 44.0371 27.3048C44.2121 27.3975 44.2121 27.5725 44.2121 27.835V29.7754V29.7806ZM38.6533 29.7806V31.371H41.0364L41.3864 30.9284C41.9166 31.4585 42.4467 31.721 43.1518 31.721C43.857 31.721 44.3871 31.4585 44.8298 31.0107C45.0923 31.2784 45.4474 31.3659 45.8026 31.3659H46.5952V29.7754H46.4202L46.2452 29.6879L46.1577 29.6004V27.835C46.1577 27.0423 45.8952 26.5122 45.3651 26.0747C44.9224 25.632 44.3048 25.457 43.4246 25.457C42.7144 25.457 42.0967 25.632 41.5717 26.0747C40.9541 26.6923 40.6041 27.3975 40.6041 28.3651C40.6041 28.8953 40.6041 29.4254 40.6916 29.7754H38.6636L38.6533 29.7806Z" fill="#16498E"/>
<path d="M48.9794 32.1639C48.8044 32.3389 48.7169 32.6066 48.7169 32.8691C48.7169 33.1316 48.8044 33.3992 48.9794 33.5742C49.2419 33.7492 49.422 33.8367 49.6845 33.8367C49.947 33.8367 50.2147 33.7492 50.3948 33.5742C50.5698 33.3992 50.6573 33.1316 50.6573 32.8691C50.6573 32.6066 50.5698 32.3389 50.3948 32.1639C50.2198 31.9889 49.9522 31.8963 49.6845 31.8963C49.4169 31.8963 49.2419 31.9838 48.9794 32.1639ZM46.7713 32.1639C46.5963 32.3389 46.5088 32.6066 46.5088 32.8691C46.5088 33.1316 46.5963 33.3992 46.7713 33.5742C46.9463 33.7492 47.2139 33.8367 47.4764 33.8367C47.7389 33.8367 48.0066 33.7492 48.1816 33.5742C48.3566 33.3992 48.4441 33.1316 48.4441 32.8691C48.4441 32.6066 48.3566 32.3389 48.1816 32.1639C48.0066 31.9889 47.7389 31.8963 47.4764 31.8963C47.2139 31.8963 46.9463 31.9838 46.7713 32.1639ZM48.8044 25.4573V29.4257L48.7169 29.6007L48.5419 29.6882H46.5139V31.2786H49.1595C49.6897 31.2786 50.0397 31.1036 50.3948 30.7485L50.925 31.2786H51.3676V29.6882H50.75L50.6625 29.6007V25.4521H48.8095L48.8044 25.4573Z" fill="#16498E"/>
<path d="M52.7725 25.0143V26.5121L52.86 26.6871C53.9203 26.6871 54.8004 27.1298 55.5056 27.9224C56.0357 28.5401 56.2982 29.0702 56.2982 29.6004L56.1232 29.7754H51.2695V31.3658H56.6534C57.1835 31.3658 57.5335 31.1908 57.8886 30.8357L58.4188 31.3658H58.6813V29.7754H58.2387V29.5129C58.1512 28.6276 57.796 27.7474 57.2659 27.0423C56.8232 26.3371 56.1181 25.807 55.3254 25.457L57.4409 24.0467V22.2812L52.7622 25.0195L52.7725 25.0143Z" fill="#16498E"/>
<path d="M60.8057 22.3691V29.7809H58.5977V31.3713H61.1557C61.6859 31.3713 62.1285 31.1963 62.391 30.8412C62.6587 30.4861 62.7462 30.1361 62.7462 29.7809V22.3691H60.8057Z" fill="#16498E"/>
<path d="M64.5068 22.3691V31.6338H65.4796L66.4524 30.8361V22.3691H64.5068Z" fill="#16498E"/>
<path d="M71.6558 29.6934C71.3882 29.7809 71.2132 29.7809 71.0382 29.7809C70.683 29.7809 70.4205 29.6059 70.2455 29.3382C69.983 29.0706 69.8904 28.7206 69.8904 28.2779C69.8904 27.8353 69.9779 27.4801 70.158 27.3051C70.333 27.0426 70.5955 26.9551 70.9507 26.9551L71.3933 27.1301L71.661 27.6551V29.6882L71.6558 29.6934ZM71.1257 32.0765C70.7705 32.4316 70.333 32.6066 69.5404 32.6066L69.0102 32.5191H68.8352V33.2243L69.6279 34.1919H69.983C70.9507 34.1919 71.7485 33.9294 72.4536 33.3993C73.1587 32.7816 73.6014 31.8963 73.6014 30.7537V27.6654C73.6014 26.8728 73.2463 26.2551 72.6286 25.9051C72.186 25.55 71.5683 25.375 70.9507 25.375C70.0705 25.375 69.2727 25.6375 68.7477 26.2551C68.2176 26.7853 67.9551 27.4904 67.9551 28.2831C67.9551 29.0757 68.2176 29.6934 68.6602 30.311C69.2779 31.0162 69.9882 31.3713 70.7757 31.3713C71.0433 31.3713 71.3058 31.3713 71.5735 31.2838C71.486 31.6338 71.311 31.9015 71.1308 32.0765" fill="#16498E"/>
<path d="M80.927 29.7803H80.3968C80.0468 29.7803 79.7792 29.6052 79.5167 29.3376C79.3417 29.07 79.1615 28.8075 79.1615 28.3648C79.1615 27.9222 79.249 27.5722 79.5167 27.3045C79.6917 27.042 79.9593 26.9494 80.3968 26.9494L80.927 27.0369V29.77V29.7803ZM81.8946 25.1016L81.3645 25.5442C81.0093 25.3692 80.5718 25.2766 80.1292 25.2766C79.3365 25.2766 78.7189 25.5442 78.1887 26.0744C77.5711 26.692 77.3086 27.4847 77.3086 28.3648C77.3086 29.1575 77.4836 29.7751 77.8387 30.3053C78.3689 31.0104 78.9865 31.3655 79.8667 31.3655C80.4843 31.3655 80.927 31.1905 81.3645 30.8354C81.7196 31.1905 82.0696 31.3655 82.5123 31.3655H83.4851V29.7751H83.0424L82.9549 29.6876L82.8674 29.6001V25.0964H81.8946V25.1016ZM81.1895 22.9861C81.0145 23.1611 80.927 23.4288 80.927 23.6913C80.927 23.9538 81.0145 24.2214 81.1895 24.3964C81.3645 24.5714 81.6321 24.6641 81.8946 24.6641C82.1571 24.6641 82.4248 24.5766 82.5998 24.3964C82.7748 24.2214 82.8674 23.9538 82.8674 23.6913C82.8674 23.4288 82.7799 23.1611 82.5998 22.9861C82.4248 22.8111 82.1571 22.7236 81.8946 22.7236C81.6321 22.7236 81.3645 22.8111 81.1895 22.9861ZM78.9865 22.9861C78.724 23.1611 78.6314 23.4288 78.6314 23.6913C78.6314 23.9538 78.7189 24.2214 78.9865 24.3964C79.1615 24.5714 79.3417 24.6641 79.6042 24.6641C79.9593 24.6641 80.1343 24.5766 80.3093 24.3964C80.5718 24.2214 80.6645 23.9538 80.6645 23.6913C80.6645 23.4288 80.577 23.1611 80.3093 22.9861C80.1343 22.8111 79.9593 22.7236 79.6042 22.7236C79.3417 22.7236 79.1615 22.8111 78.9865 22.9861Z" fill="#16498E"/>
<path d="M85.9546 32.1639C85.7796 32.3389 85.6921 32.6066 85.6921 32.8691C85.6921 33.1316 85.7796 33.3992 85.9546 33.5742C86.1296 33.7492 86.3097 33.8367 86.6597 33.8367C86.9222 33.8367 87.1024 33.7492 87.2774 33.5742C87.5399 33.3992 87.6325 33.1316 87.6325 32.8691C87.6325 32.6066 87.545 32.3389 87.2774 32.1639C87.1024 31.9889 86.9222 31.8963 86.6597 31.8963C86.3046 31.8963 86.1296 31.9838 85.9546 32.1639ZM83.659 32.1639C83.484 32.3389 83.3965 32.6066 83.3965 32.8691C83.3965 33.1316 83.484 33.3992 83.659 33.5742C83.834 33.7492 84.1016 33.8367 84.3641 33.8367C84.6266 33.8367 84.8943 33.7492 85.0693 33.5742C85.2443 33.3992 85.3318 33.1316 85.3318 32.8691C85.3318 32.6066 85.2443 32.3389 85.0693 32.1639C84.8943 31.9889 84.6266 31.8963 84.3641 31.8963C84.1016 31.8963 83.834 31.9838 83.659 32.1639ZM85.6869 25.4573V29.4257L85.5994 29.6007L85.4244 29.6882H83.3965V31.2786H86.0421C86.5722 31.2786 86.9222 31.1036 87.2774 30.7485L87.895 31.2786H88.2502V29.6882H87.6325V25.4521H85.6921L85.6869 25.4573Z" fill="#16498E"/>
<path d="M89.6602 25.0143V26.5121L89.8352 26.6871C90.808 26.6871 91.6881 27.1298 92.4808 27.9224C92.9234 28.5401 93.1859 29.0702 93.1859 29.6004L93.0109 29.7754H88.1572V31.3658H93.6286C94.0712 31.3658 94.5087 31.1908 94.7764 30.8357H94.8638L95.3065 31.3658H95.5741V29.7754H95.1315V29.5129C95.044 28.6276 94.7815 27.7474 94.2513 27.0423C93.7212 26.3371 93.1035 25.807 92.2234 25.457L94.4315 24.0467V22.2812L89.6653 25.0195L89.6602 25.0143Z" fill="#16498E"/>
<path d="M98.0444 32.1639C97.7819 32.3389 97.6944 32.6066 97.6944 32.8691C97.6944 33.1316 97.7819 33.3992 98.0444 33.5742C98.2194 33.7492 98.3996 33.8367 98.6621 33.8367C98.9246 33.8367 99.1922 33.7492 99.3672 33.5742C99.5422 33.3992 99.6349 33.1316 99.6349 32.8691C99.6349 32.6066 99.5474 32.3389 99.3672 32.1639C99.1922 31.9889 98.9297 31.8963 98.6621 31.8963C98.3944 31.8963 98.2194 31.9838 98.0444 32.1639ZM95.7488 32.1639C95.5738 32.3389 95.4863 32.6066 95.4863 32.8691C95.4863 33.1316 95.5738 33.3992 95.7488 33.5742C95.9238 33.7492 96.1915 33.8367 96.454 33.8367C96.7165 33.8367 96.9841 33.7492 97.1591 33.5742C97.3341 33.3992 97.4216 33.1316 97.4216 32.8691C97.4216 32.6066 97.3341 32.3389 97.1591 32.1639C96.9841 31.9889 96.7165 31.8963 96.454 31.8963C96.1915 31.8963 95.9238 31.9838 95.7488 32.1639ZM97.7819 25.4573V29.4257L97.6944 29.6007L97.5194 29.6882H95.4915V31.2786H98.1371C98.6672 31.2786 99.0172 31.1036 99.3724 30.7485L99.9025 31.2786H100.345V29.6882H99.7275L99.64 29.6007V25.4521H97.7871L97.7819 25.4573Z" fill="#16498E"/>
<path d="M102.455 25.6325V29.781H100.247V31.3715H102.805C103.335 31.3715 103.69 31.1965 104.046 30.8413C104.308 30.4913 104.396 30.2237 104.396 29.781V25.6325H102.455ZM102.723 23.1619C102.548 23.3369 102.46 23.6046 102.46 23.8671C102.46 24.1296 102.548 24.3972 102.723 24.5722C102.898 24.7472 103.165 24.8399 103.428 24.8399C103.69 24.8399 103.958 24.7524 104.133 24.5722C104.308 24.3972 104.396 24.1296 104.396 23.8671C104.396 23.6046 104.308 23.3369 104.133 23.1619C103.958 22.9869 103.69 22.8994 103.428 22.8994C103.165 22.8994 102.898 22.9869 102.723 23.1619Z" fill="#16498E"/>
<path d="M106.166 22.3694V29.7812C106.166 30.2238 106.341 30.579 106.609 30.929C106.964 31.1915 107.314 31.3665 107.669 31.3665H108.729V29.776H108.287L108.112 29.6885V22.3643H106.171L106.166 22.3694Z" fill="#16498E"/>
<path d="M110.136 25.0143V26.5121L110.223 26.6871C111.284 26.6871 112.164 27.1298 112.869 27.9224C113.399 28.5401 113.661 29.0702 113.661 29.6004L113.486 29.7754H108.633V31.3658H114.104C114.547 31.3658 114.984 31.1908 115.252 30.8357H115.339L115.782 31.3658H116.045V29.7754H115.602V29.5129C115.514 28.6276 115.247 27.7474 114.629 27.0423C114.186 26.3371 113.481 25.807 112.689 25.457L114.892 24.0467V22.2812L110.125 25.0195L110.136 25.0143Z" fill="#16498E"/>
<path d="M118.432 32.1639C118.257 32.3389 118.17 32.6066 118.17 32.8691C118.17 33.1316 118.257 33.3992 118.432 33.5742C118.7 33.7492 118.875 33.8367 119.138 33.8367C119.4 33.8367 119.668 33.7492 119.843 33.5742C120.018 33.3992 120.11 33.1316 120.11 32.8691C120.11 32.6066 120.023 32.3389 119.843 32.1639C119.663 31.9889 119.4 31.8963 119.138 31.8963C118.875 31.8963 118.695 31.9838 118.432 32.1639ZM116.224 32.1639C116.049 32.3389 115.962 32.6066 115.962 32.8691C115.962 33.1316 116.049 33.3992 116.224 33.5742C116.399 33.7492 116.667 33.8367 116.93 33.8367C117.192 33.8367 117.46 33.7492 117.635 33.5742C117.81 33.3992 117.897 33.1316 117.897 32.8691C117.897 32.6066 117.81 32.3389 117.635 32.1639C117.46 31.9889 117.192 31.8963 116.93 31.8963C116.667 31.8963 116.399 31.9838 116.224 32.1639ZM118.257 25.4573V29.4257L118.17 29.6007L117.995 29.6882H115.967V31.2786H118.613C119.055 31.2786 119.498 31.1036 119.848 30.7485L120.378 31.2786H120.821V29.6882H120.203L120.116 29.6007V25.4521H118.263L118.257 25.4573Z" fill="#16498E"/>
<path d="M126.287 29.7808C126.025 30.0485 125.67 30.136 125.402 30.136C124.784 30.136 124.522 29.6058 124.522 28.458C124.522 28.0154 124.609 27.6654 124.784 27.3977C124.959 27.1352 125.227 27.0426 125.49 27.0426C125.752 27.0426 125.932 27.1301 126.107 27.3051C126.195 27.3977 126.282 27.5727 126.282 27.8352V29.7757L126.287 29.7808ZM120.729 29.7808V31.3713H123.024L123.379 30.9286H123.467C123.909 31.4588 124.527 31.7213 125.145 31.7213C125.85 31.7213 126.38 31.4588 126.823 31.011C127.085 31.2786 127.44 31.3661 127.883 31.3661H128.588V29.7757H128.413L128.238 29.6882V27.8301C128.238 27.0374 127.976 26.5073 127.445 26.0698C126.915 25.6271 126.298 25.4521 125.505 25.4521C124.712 25.4521 124.09 25.6271 123.565 26.0698C122.947 26.6874 122.592 27.3926 122.592 28.3602C122.592 28.8904 122.679 29.4205 122.767 29.7705H120.739L120.729 29.7808Z" fill="#16498E"/>
<path d="M130.785 22.3691V29.6059L130.697 29.7809H128.489V31.3713H131.135C131.665 31.3713 132.015 31.1963 132.37 30.8412C132.545 30.4861 132.725 30.1361 132.725 29.7809V22.3691H130.785Z" fill="#16498E"/>
<path d="M134.491 22.3691V31.6338H135.376L136.349 30.8361V22.3691H134.491Z" fill="#16498E"/>
<path d="M149.321 25.6325V29.606L149.146 29.781H143.144L142.614 29.606C142.439 29.431 142.352 29.2509 142.352 28.9884V26.5178H141.379L140.406 27.3104V28.9884C140.406 29.6935 140.674 30.3112 141.292 30.8413C141.734 31.1965 142.259 31.3715 142.794 31.3715H149.676C150.206 31.3715 150.561 31.1965 150.911 30.8413C151.179 30.5788 151.267 30.2237 151.267 29.781V25.6325H149.326H149.321ZM146.32 25.545C146.058 25.72 145.97 25.9876 145.97 26.2501C145.97 26.5126 146.058 26.7803 146.32 26.9553C146.495 27.1303 146.675 27.2178 146.938 27.2178C147.2 27.2178 147.468 27.1303 147.643 26.9553C147.818 26.7803 147.911 26.5126 147.911 26.2501C147.911 25.9876 147.823 25.72 147.643 25.545C147.468 25.37 147.2 25.2773 146.938 25.2773C146.675 25.2773 146.495 25.3648 146.32 25.545ZM144.025 25.545C143.85 25.72 143.762 25.9876 143.762 26.2501C143.762 26.5126 143.85 26.7803 144.025 26.9553C144.2 27.1303 144.467 27.2178 144.73 27.2178C144.992 27.2178 145.26 27.1303 145.435 26.9553C145.61 26.7803 145.697 26.5126 145.697 26.2501C145.697 25.9876 145.61 25.72 145.435 25.545C145.26 25.37 144.992 25.2773 144.73 25.2773C144.467 25.2773 144.2 25.3648 144.025 25.545Z" fill="#16498E"/>
<path d="M153.026 22.3691V31.6338H153.999L154.967 30.8361V22.3691H153.026Z" fill="#16498E"/>
<path d="M157.617 27.135C157.705 27.0475 157.88 27.0475 158.148 27.0475C158.678 27.0475 159.115 27.2225 159.383 27.5776C159.733 27.8401 159.913 28.2828 159.913 28.8129V29.6056L159.738 29.7806H156.3V31.371H160.268C160.623 31.371 160.973 31.2835 161.241 31.0159L161.503 30.8409L161.946 31.371H162.121V29.7806H161.859C161.771 29.6931 161.771 29.5181 161.771 29.2504V28.6328C161.771 27.7526 161.509 27.0423 160.978 26.4298C160.361 25.8122 159.481 25.457 158.508 25.457C158.065 25.457 157.803 25.457 157.628 25.5445V27.135H157.617Z" fill="#16498E"/>
<path d="M164.585 32.1636C164.41 32.3386 164.323 32.6063 164.323 32.8688C164.323 33.1313 164.41 33.3989 164.585 33.5739C164.76 33.7489 165.028 33.8364 165.291 33.8364C165.553 33.8364 165.821 33.7489 165.996 33.5739C166.171 33.3989 166.258 33.1313 166.258 32.8688C166.258 32.6063 166.171 32.3386 165.996 32.1636C165.821 31.9886 165.553 31.896 165.291 31.896C165.028 31.896 164.76 31.9835 164.585 32.1636ZM162.377 32.1636C162.202 32.3386 162.115 32.6063 162.115 32.8688C162.115 33.1313 162.202 33.3989 162.377 33.5739C162.552 33.7489 162.82 33.8364 163.088 33.8364C163.355 33.8364 163.53 33.7489 163.705 33.5739C163.968 33.3989 164.06 33.1313 164.06 32.8688C164.06 32.6063 163.973 32.3386 163.705 32.1636C163.53 31.9886 163.35 31.896 163.088 31.896C162.825 31.896 162.557 31.9835 162.377 32.1636ZM164.323 25.457V29.5181L164.235 29.6931H162.027V31.2835H164.673C165.116 31.2835 165.553 31.1085 165.821 30.7534C166.083 30.3982 166.263 30.0482 166.263 29.6931V25.457H164.323Z" fill="#16498E"/>
<path d="M169.708 25.6318V30.6605C169.708 31.4583 169.533 31.9833 169.265 32.251C168.91 32.6061 168.38 32.7811 167.675 32.7811L167.145 32.6936H166.97V33.3987L167.762 34.3664H168.118C168.473 34.3664 168.735 34.3664 169.09 34.2789C169.62 34.1039 170.151 33.8362 170.588 33.4862C171.298 32.9561 171.648 32.0708 171.648 30.9282V25.6318H169.708Z" fill="#16498E"/>
<path d="M176.851 29.7806H176.496C175.616 29.7806 175.173 29.3431 175.173 28.3703C175.173 27.9328 175.26 27.6651 175.435 27.4026C175.61 27.1401 175.878 27.0475 176.141 27.0475L176.583 27.2225C176.758 27.31 176.846 27.5776 176.846 27.8401V29.7806H176.851ZM176.851 31.3659C176.588 32.3386 175.878 32.7761 174.735 32.7761C174.38 32.7761 174.03 32.6886 173.675 32.6886V33.3063L174.468 34.3666H175.085C175.523 34.3666 175.878 34.2791 176.321 34.1916C176.851 34.1041 177.293 33.8364 177.731 33.4864C178.349 32.9563 178.704 32.2511 178.791 31.371H179.234V29.7806H178.791V27.8401C178.791 26.96 178.524 26.3372 177.818 25.8997C177.376 25.632 176.846 25.457 176.228 25.457C175.26 25.457 174.55 25.7247 174.025 26.3423C173.495 26.8725 173.232 27.5776 173.232 28.5453C173.232 29.2556 173.495 29.8732 173.938 30.4034C174.468 31.021 175.173 31.371 176.053 31.371H176.846L176.851 31.3659Z" fill="#16498E"/>
<path d="M181.442 25.6325V29.5134L181.354 29.6884L181.179 29.7759H179.151V31.3663H181.797C182.24 31.3663 182.677 31.1913 183.032 30.8362L183.562 31.3663H184V29.7759H183.382L183.295 29.6884V25.6274H181.442V25.6325ZM181.884 23.1619C181.709 23.3369 181.534 23.6046 181.534 23.8671C181.534 24.1296 181.709 24.3972 181.884 24.5722C182.059 24.7472 182.24 24.8399 182.59 24.8399C182.857 24.8399 183.032 24.7524 183.207 24.5722C183.47 24.3972 183.562 24.1296 183.562 23.8671C183.562 23.6046 183.475 23.3369 183.207 23.1619C183.032 22.9869 182.852 22.8994 182.59 22.8994C182.234 22.8994 182.059 22.9869 181.884 23.1619ZM179.589 23.1619C179.414 23.3369 179.326 23.6046 179.326 23.8671C179.326 24.1296 179.414 24.3972 179.589 24.5722C179.764 24.7472 180.032 24.8399 180.294 24.8399C180.557 24.8399 180.824 24.7524 180.999 24.5722C181.174 24.3972 181.262 24.1296 181.262 23.8671C181.262 23.6046 181.174 23.3369 180.999 23.1619C180.824 22.9869 180.557 22.8994 180.294 22.8994C180.032 22.8994 179.764 22.9869 179.589 23.1619Z" fill="#16498E"/>
<path d="M186.122 22.3691V29.7809H183.919V31.3713H186.477C187.007 31.3713 187.45 31.1963 187.712 30.8412C187.98 30.4861 188.067 30.1361 188.067 29.7809V22.3691H186.127H186.122Z" fill="#16498E"/>
<path d="M189.828 22.3691V31.6338H190.796L191.769 30.8361V22.3691H189.828Z" fill="#16498E"/>
<path d="M199.267 29.7803H198.737C198.382 29.7803 198.119 29.6052 197.857 29.3376C197.594 29.07 197.501 28.8075 197.501 28.3648C197.501 27.9222 197.589 27.5722 197.857 27.3045C198.032 27.042 198.299 26.9494 198.649 26.9494L199.267 27.0369V29.77V29.7803ZM200.24 25.1016L199.709 25.5442C199.267 25.3692 198.917 25.2766 198.474 25.2766C197.682 25.2766 196.971 25.5442 196.534 26.0744C195.916 26.692 195.648 27.4847 195.648 28.3648C195.648 29.1575 195.823 29.7751 196.179 30.3053C196.616 31.0104 197.326 31.3655 198.119 31.3655H198.207C198.737 31.3655 199.267 31.1905 199.704 30.8354C200.059 31.1905 200.409 31.3655 200.852 31.3655H201.825V29.7751H201.382L201.207 29.6876V25.0964H200.234L200.24 25.1016ZM199.534 22.9861C199.359 23.1611 199.272 23.4288 199.272 23.6913C199.272 23.9538 199.359 24.2214 199.534 24.3964C199.709 24.5714 199.977 24.6641 200.245 24.6641C200.512 24.6641 200.687 24.5766 200.95 24.3964C201.125 24.2214 201.218 23.9538 201.218 23.6913C201.218 23.4288 201.13 23.1611 200.95 22.9861C200.687 22.8111 200.512 22.7236 200.245 22.7236C199.977 22.7236 199.715 22.8111 199.534 22.9861ZM197.239 22.9861C197.064 23.1611 196.971 23.4288 196.971 23.6913C196.971 23.9538 197.059 24.2214 197.239 24.3964C197.501 24.5714 197.682 24.6641 197.944 24.6641C198.207 24.6641 198.474 24.5766 198.649 24.3964C198.824 24.2214 198.912 23.9538 198.912 23.6913C198.912 23.4288 198.824 23.1611 198.649 22.9861C198.474 22.8111 198.207 22.7236 197.944 22.7236C197.682 22.7236 197.501 22.8111 197.239 22.9861Z" fill="#16498E"/>
<path d="M203.241 24.9274V26.5179L203.416 26.6929C204.296 26.6929 205.094 27.1355 205.887 27.7532C206.504 28.2833 206.767 28.901 206.767 29.6061L206.592 29.7811H201.738V31.3715H207.21C207.652 31.3715 208.002 31.1965 208.357 30.9289C208.625 30.5789 208.8 30.1362 208.8 29.6936C208.8 28.901 208.532 28.1083 208.002 27.3105C207.472 26.4304 206.679 25.8127 205.799 25.3701L208.002 24.0473V22.1943L203.236 24.9274H203.241Z" fill="#16498E"/>
<path d="M211.537 25.457V30.5732C211.537 31.2784 211.362 31.8085 211.007 32.1636C210.657 32.5188 210.127 32.6938 209.422 32.6938L208.892 32.6063H208.717V33.3114L209.509 34.2842H209.952C210.837 34.2842 211.543 34.0217 212.16 33.5791C212.953 33.0489 213.308 32.2563 213.483 31.2835H214.101V29.6931H213.483V25.457H211.543H211.537Z" fill="#16498E"/>
<path d="M226.628 25.6322V29.6006L226.453 29.7756H223.895V26.3322H221.955V29.6006L221.78 29.7756H219.309V27.0425H217.369V29.6006L217.194 29.7756H214.013V31.3609H217.806C218.249 31.3609 218.691 31.1859 218.954 30.7432H219.041L219.572 31.3609H222.397C222.84 31.3609 223.277 31.1859 223.633 30.7432L224.163 31.3609H226.988C227.426 31.3609 227.781 31.1859 228.044 30.9234C228.399 30.5682 228.486 30.2182 228.486 29.7756V25.627H226.633L226.628 25.6322ZM223.36 23.1616C223.185 23.3366 223.097 23.6043 223.097 23.8668C223.097 24.1293 223.185 24.3969 223.36 24.5719C223.627 24.7469 223.802 24.8344 224.065 24.8344C224.327 24.8344 224.595 24.7469 224.77 24.5719C224.945 24.3969 225.038 24.1293 225.038 23.8668C225.038 23.6043 224.95 23.3366 224.77 23.1616C224.595 22.9866 224.333 22.8991 224.065 22.8991C223.797 22.8991 223.622 22.9866 223.36 23.1616ZM221.157 23.1616C220.982 23.3366 220.889 23.6043 220.889 23.8668C220.889 24.1293 220.977 24.3969 221.157 24.5719C221.332 24.7469 221.599 24.8344 221.862 24.8344C222.124 24.8344 222.392 24.7469 222.567 24.5719C222.742 24.3969 222.83 24.1293 222.83 23.8668C222.83 23.6043 222.742 23.3366 222.567 23.1616C222.392 22.9866 222.124 22.8991 221.862 22.8991C221.599 22.8991 221.332 22.9866 221.157 23.1616ZM222.392 21.3087C222.217 21.4837 222.124 21.6638 222.124 21.9263C222.124 22.1888 222.212 22.369 222.392 22.544C222.48 22.719 222.747 22.8065 223.01 22.8065L223.627 22.544C223.802 22.369 223.89 22.1888 223.89 21.9263C223.89 21.6638 223.802 21.4837 223.627 21.3087L223.01 21.041C222.747 21.041 222.48 21.1285 222.392 21.3087Z" fill="#16498E"/>
<path d="M282.119 9.06971C282.984 9.04912 283.849 9.06457 284.719 9.04912C285.151 9.05427 285.583 9.02854 286.016 9.04912C286.628 10.2329 287.189 11.4425 287.796 12.6263L287.869 12.8374C287.889 14.5616 287.915 16.291 287.905 18.0153C287.925 18.7977 287.925 19.5749 287.925 20.3572C287.966 21.1396 287.925 21.9168 287.946 22.6991C287.575 23.0182 287.112 23.2756 286.613 23.2602C286.17 23.2756 285.743 23.1006 285.383 22.8535C285.11 23.0234 284.842 23.2241 284.513 23.291C284.132 23.3528 283.725 23.3528 283.37 23.1727L282.953 22.9616C282.742 23.0543 282.562 23.2035 282.341 23.2653C281.934 23.3528 281.466 23.3477 281.136 23.0543C281.136 23.9035 281.342 24.7837 281.857 25.4682L282.191 25.916C282.459 26.1682 282.701 26.4565 283.015 26.6572L283.555 27.0535C284.266 27.0535 284.981 27.0535 285.691 27.0432C286.304 27.0329 286.927 27.0741 287.539 27.0278C288.239 27.0432 288.939 26.9815 289.639 27.0227C290.468 27.0124 291.296 26.9712 292.13 27.0021C292.66 26.9763 293.191 26.9815 293.721 26.9815C293.736 25.9469 293.674 24.9227 293.674 23.8881C293.649 23.5432 293.705 23.1984 293.664 22.8587L293.525 22.7918L293.669 22.7763C293.659 21.5822 293.602 20.3932 293.613 19.1991C293.561 18.7925 293.587 18.3807 293.582 17.9741C293.566 17.3462 293.551 16.7131 293.551 16.0852C293.958 16.08 294.359 16.116 294.76 16.0646C295.074 16.0543 295.383 16.0594 295.702 16.0594L295.79 16.0954C296.325 16.0234 296.866 16.0697 297.401 16.0543C297.715 16.0646 298.029 16.0337 298.343 16.0646C298.379 16.6822 298.353 17.3102 298.358 17.9329C298.384 18.4837 298.358 19.0396 298.369 19.5903C298.41 20.1771 298.399 20.769 298.394 21.3557C298.405 21.8293 298.43 22.3028 298.405 22.7712C298.379 23.5227 298.456 24.269 298.42 25.0153C298.405 25.5454 298.487 26.0859 298.435 26.6212C298.405 27.2594 298.477 27.8925 298.451 28.5256C298.466 28.8962 298.425 29.2771 298.451 29.6477C298.477 29.9771 298.441 30.3065 298.492 30.6307L298.477 31.0631C298.477 31.7168 298.523 32.3653 298.492 33.019C298.471 33.6212 298.502 34.2234 298.502 34.8256C298.533 35.4381 298.482 36.0506 298.533 36.6579C298.492 37.2962 298.508 37.9396 298.502 38.5829C298.487 39.8852 298.502 41.1874 298.502 42.4947C298.508 43.7815 298.502 45.0631 298.508 46.3499C298.513 47.441 298.487 48.5322 298.533 49.6234C298.497 50.5499 298.554 51.4763 298.508 52.4079C298.533 53.1954 298.518 53.9727 298.518 54.755L298.533 55.3469C298.487 55.6815 298.533 56.0263 298.502 56.366C298.518 57.1329 298.497 57.8947 298.513 58.6616C298.502 59.0991 298.533 59.5366 298.518 59.9741C298.508 60.2778 298.544 60.5866 298.492 60.8903C297.988 60.9521 297.473 60.8852 296.969 60.916C296.49 60.9418 296.011 60.9109 295.533 60.916C294.961 60.9315 294.39 60.916 293.819 60.9315L293.772 60.9109C293.757 59.9638 293.813 59.0219 293.783 58.0749C293.834 57.4109 293.788 56.7418 293.798 56.0778C293.808 55.7638 293.834 55.455 293.813 55.1462C293.793 54.4616 293.834 53.7822 293.808 53.0977C293.783 52.4079 293.839 51.7285 293.808 51.044C293.819 50.5344 293.824 50.0249 293.824 49.5204C293.494 49.5102 293.16 49.5204 292.83 49.5513C290.164 49.5513 287.493 49.5925 284.827 49.6079L284.564 49.6646C283.097 50.7249 281.584 51.7182 279.978 52.5521C279.458 52.8352 278.923 53.0822 278.388 53.3344C278.069 53.458 277.765 53.6227 277.435 53.7205C276.612 54.055 275.773 54.3638 274.913 54.6057C274.594 54.7087 274.26 54.7704 273.946 54.8682C273.616 54.9352 273.292 55.0227 272.973 55.1102C272.479 55.1925 271.985 55.2903 271.491 55.3469L270.955 55.4293L270.924 55.5168L270.883 55.4138L270.77 55.4241C270.523 55.5168 270.235 55.4396 269.993 55.5477C269.581 55.5631 269.174 55.5528 268.768 55.5528L268.325 55.594C268.052 55.5271 267.774 55.5631 267.496 55.5425L267.208 55.5168C266.946 55.5168 266.683 55.491 266.421 55.491C265.988 55.4087 265.546 55.3984 265.108 55.316C264.46 55.2388 263.821 55.105 263.188 54.9609C261.809 54.6727 260.471 54.2249 259.153 53.7205C257.769 53.1954 256.43 52.5521 255.133 51.8418C253.924 51.1418 252.719 50.4366 251.587 49.6182C250.346 49.6182 249.106 49.6131 247.866 49.6079C246.43 49.6337 244.994 49.5874 243.558 49.6079C243.547 50.1278 243.558 50.6477 243.542 51.1727H243.588L243.552 51.816C243.558 52.2432 243.527 52.6704 243.552 53.0925C243.527 53.7616 243.568 54.4307 243.532 55.105C243.568 55.5682 243.532 56.0366 243.537 56.505C243.563 57.0094 243.537 57.519 243.552 58.0234C243.594 58.9756 243.588 59.9329 243.594 60.8903C242.281 60.8903 240.969 60.8903 239.661 60.9006C239.27 60.9109 238.884 60.8697 238.493 60.8749C238.483 59.5212 238.503 58.1572 238.477 56.8035C238.472 55.2028 238.493 53.6072 238.503 52.0116C238.519 51.2293 238.549 50.4521 238.529 49.6697C238.56 49.2322 238.539 48.7947 238.549 48.3521C238.544 47.1477 238.58 45.9432 238.565 44.7388C238.565 44.2344 238.58 43.73 238.575 43.2256C238.575 42.9374 238.627 42.644 238.575 42.3609L238.56 42.1704L238.642 42.2013L238.539 42.083H238.642L238.565 41.6866L238.611 41.6969C238.591 40.9557 238.637 40.2094 238.637 39.4682C238.663 39.1182 238.606 38.7631 238.647 38.4131C238.688 37.0028 238.663 35.5925 238.704 34.1822C238.755 33.3587 238.704 32.5249 238.745 31.7013C238.735 31.1352 238.76 30.569 238.771 29.9977C238.76 28.7624 238.822 27.5219 238.822 26.2815C238.822 25.4065 238.858 24.5315 238.863 23.6513C238.889 21.1138 238.915 18.5763 238.966 16.0388C239.265 16.0337 239.563 16.0079 239.862 16.0337C241.216 16.0491 242.564 16.0646 243.918 16.0852L244.005 16.219C244.005 16.8057 243.99 17.3874 243.974 17.969C243.99 18.2984 243.918 18.6278 243.938 18.9572C243.928 20.419 243.902 21.8859 243.882 23.3477C243.866 23.9293 243.841 24.516 243.841 25.1028C243.835 25.6999 243.805 26.2969 243.841 26.894C244.057 26.9557 244.283 26.9249 244.505 26.9249C245.462 26.9454 246.419 26.9403 247.377 26.9506L247.721 26.9609C247.984 26.9197 248.241 26.9969 248.504 26.9815C249.837 26.9815 251.175 26.9918 252.508 27.0124C252.735 27.0484 252.966 26.9866 253.193 27.0227L253.424 26.9969C253.692 26.8271 253.975 26.6829 254.248 26.5234C254.536 26.369 254.819 26.1837 255.03 25.9263C255.267 25.6638 255.401 25.3293 255.53 25.005C255.797 24.3307 255.874 23.605 255.869 22.8844C255.56 23.1057 255.195 23.291 254.804 23.2756C254.485 23.2447 254.212 23.0285 254.021 22.7866C253.641 23.0543 253.188 23.2704 252.704 23.2344C252.416 23.2756 252.158 23.1366 251.906 23.0285L251.705 22.8999L251.535 22.8432C251.201 23.0749 250.799 23.2087 250.393 23.2138L249.76 23.08C249.508 22.9771 249.307 22.7969 249.101 22.6219L248.962 22.3388C248.983 21.5102 248.967 20.6815 248.977 19.8477C248.988 18.0565 249.06 16.2653 249.034 14.4741C249.08 14.1859 248.998 13.8977 249.019 13.6043L248.962 13.63V13.5168H249.019V13.1307L249.06 13.3263C249.07 13.0432 249.044 12.755 249.106 12.4771C249.528 11.355 249.94 10.2329 250.362 9.11089C251.613 9.14177 252.863 9.14177 254.119 9.15721C254.428 9.17265 254.742 9.13662 255.051 9.17265C255.257 9.77486 255.447 10.3822 255.633 10.9947C255.828 11.5866 256.024 12.1785 256.214 12.7756C256.492 12.7962 256.765 12.7293 257.043 12.7293L257.29 12.6469C258.242 12.1631 259.22 11.7256 260.208 11.3293C260.877 11.1028 261.541 10.866 262.221 10.6602C262.962 10.4543 263.713 10.2793 264.465 10.1197C265.211 10.0065 265.958 9.8778 266.714 9.83148C267.219 9.77486 267.733 9.82118 268.233 9.69251C269.576 9.66677 270.919 9.80059 272.242 10.0271C273.647 10.3102 275.042 10.655 276.391 11.1388C277.451 11.4837 278.465 11.9418 279.474 12.405L279.906 12.4359C280.189 12.4359 280.472 12.4256 280.755 12.4307C281.121 11.5094 281.496 10.5829 281.846 9.65648L282.094 9.08001M282.444 9.93442L282.294 10.4388C282.099 11.1954 281.883 11.9418 281.692 12.6984C282.634 12.6984 283.571 12.6881 284.513 12.6727C285.274 12.6881 286.036 12.6263 286.793 12.6675L286.664 12.2094C286.515 11.7204 286.319 11.2521 286.16 10.7682C286.046 10.4852 285.974 10.1866 285.851 9.90868C284.713 9.91383 283.581 9.90868 282.444 9.93957M250.944 10.0734C250.835 10.4234 250.789 10.7888 250.686 11.144C250.552 11.6947 250.449 12.2557 250.305 12.8013C250.624 12.8168 250.944 12.8271 251.263 12.8219C252.354 12.8322 253.445 12.8477 254.536 12.8579L254.902 12.8271L254.953 12.8682H255.267C255.056 11.9469 254.809 11.0307 254.583 10.1146C254.258 10.0837 253.934 10.1043 253.61 10.0888C252.719 10.0888 251.829 10.0425 250.938 10.0785M266.771 11.7102L266.251 11.7616C265.71 11.8285 265.165 11.9212 264.624 11.9932V12.0293C264.331 12.0447 264.053 12.1579 263.765 12.2094L263.183 12.3638C262.535 12.5234 261.902 12.7499 261.284 13.0021L260.692 13.2388C260.285 13.3829 259.905 13.5785 259.513 13.7638C259.199 13.9388 258.86 14.0727 258.571 14.294C258.556 15.1278 258.546 15.9616 258.499 16.7954C258.499 17.2072 258.489 17.6138 258.463 18.0204C258.448 19.1579 258.427 20.2954 258.412 21.4329C258.396 21.8087 258.448 22.1947 258.376 22.5653C258.345 23.116 258.376 23.6668 258.324 24.2175C258.309 24.48 258.36 24.7425 258.304 24.9999C258.124 25.9212 257.815 26.8271 257.316 27.63C256.662 28.6954 255.689 29.5499 254.593 30.1418C254.011 30.4197 253.419 30.6925 252.786 30.8418C252.266 30.9602 251.752 31.1352 251.216 31.0888C250.336 31.0888 249.456 31.0734 248.581 31.0734C247.315 31.094 246.044 31.0579 244.777 31.0734C243.774 31.0631 242.775 31.0322 241.771 31.0374C241.73 31.2844 241.741 31.5366 241.771 31.7837C241.746 32.2057 241.787 32.6278 241.746 33.0499C241.735 34.0947 241.725 35.1344 241.71 36.1793C241.735 36.7609 241.72 37.3477 241.694 37.9344C241.694 38.7013 241.684 39.4631 241.679 40.23C241.658 41.1874 241.694 42.1499 241.648 43.1072C241.648 43.7352 241.648 44.3631 241.648 44.991C242.497 45.0013 243.346 44.991 244.201 45.0219C244.489 44.9756 244.777 45.0528 245.071 45.0271C246.913 45.0271 248.751 45.0631 250.588 45.0477L251.067 45.3616C252.066 46.2469 253.095 47.0962 254.186 47.8631C255.056 48.4807 255.931 49.1035 256.883 49.5977C258.129 50.344 259.472 50.9102 260.821 51.4454C261.382 51.6307 261.938 51.8418 262.514 51.9859L262.746 52.0579C263.209 52.1918 263.688 52.2947 264.161 52.3874L264.357 52.4388L264.604 52.4697L264.99 52.5469C265.36 52.6035 265.741 52.6293 266.112 52.6962C266.472 52.7168 266.827 52.7682 267.188 52.7991L267.589 52.7785C267.877 52.8249 268.171 52.7785 268.459 52.7991C268.727 52.8146 268.999 52.7888 269.262 52.7271C270.106 52.6756 270.945 52.5675 271.774 52.4079L272.041 52.2793L272.258 52.2999C272.602 52.2329 272.947 52.1455 273.287 52.0631C274.821 51.6822 276.293 51.0852 277.739 50.4521L278.341 50.1741C279.947 49.3454 281.533 48.4653 283.005 47.405C284.091 46.6844 285.105 45.866 286.119 45.0579C287.395 45.0785 288.666 44.991 289.938 44.9962C291.77 44.9396 293.602 44.9087 295.44 44.8675C295.46 44.1675 295.409 43.4675 295.44 42.7727C295.43 41.5837 295.44 40.3947 295.44 39.2109C295.45 38.8506 295.46 38.4954 295.455 38.1403C295.445 37.4506 295.481 36.7712 295.471 36.0866C295.471 35.3866 295.46 34.6866 295.476 33.9866C295.445 33.3021 295.486 32.6175 295.466 31.9381C295.414 31.6859 295.466 31.4285 295.445 31.1763C295.11 31.1815 294.771 31.1815 294.431 31.1815C293.937 31.2381 293.433 31.2072 292.933 31.2227C291.708 31.2638 290.483 31.2741 289.258 31.3102C288.116 31.305 286.978 31.3565 285.835 31.341C285.305 31.305 284.785 31.1866 284.281 31.0322C283.041 30.5844 281.893 29.8844 280.905 29.0146C280.601 28.716 280.261 28.4484 280.009 28.1035C279.628 27.7021 279.335 27.2234 279.098 26.7241C278.923 26.23 278.722 25.7307 278.722 25.1954C278.722 24.7734 278.722 24.3513 278.722 23.9293C278.681 23.2293 278.738 22.5293 278.702 21.8293C278.676 20.3315 278.676 18.8337 278.66 17.3359C278.681 16.6513 278.65 15.9668 278.65 15.2822C278.676 14.9374 278.635 14.5874 278.66 14.2374C278.192 14.0212 277.713 13.8153 277.25 13.5888C276.71 13.3624 276.144 13.1977 275.598 13.0021L275.454 12.9506L275.207 12.8528C274.414 12.5646 273.596 12.3535 272.772 12.1682C271.815 11.9881 270.858 11.7719 269.885 11.7462C269.308 11.6432 268.716 11.7462 268.14 11.6638C267.898 11.6587 267.656 11.6484 267.414 11.6793L266.802 11.7153M249.837 14.7984C249.837 15.3028 249.806 15.8072 249.837 16.3116L250.094 16.5227C250.398 16.5432 250.702 16.5535 251.005 16.5329L251.211 16.2087C251.201 15.7197 251.237 15.2307 251.221 14.7418L251.036 14.4896C250.763 14.4072 250.47 14.4535 250.187 14.4381L249.832 14.7984M252.251 14.7057C252.21 14.9271 252.215 15.1535 252.21 15.38C252.23 15.6888 252.169 15.9977 252.22 16.3065L252.575 16.569H253.219L253.61 16.3065C253.62 15.8175 253.625 15.3337 253.635 14.8396L253.569 14.5874C253.316 14.4175 253.008 14.469 252.719 14.4587L252.246 14.7006M254.546 14.7932C254.521 15.2668 254.541 15.7403 254.521 16.2138L254.824 16.5793C255.102 16.5844 255.38 16.641 255.653 16.5896L255.941 16.2602C255.941 15.7866 255.967 15.3131 255.962 14.8344L255.777 14.5256C255.494 14.4793 255.21 14.469 254.933 14.4793L254.552 14.7881M286.18 14.6234L285.866 14.7932L285.856 15.1999H285.954L285.856 15.2204L285.944 15.7197L285.846 15.6219C285.846 15.9153 285.846 16.2138 285.871 16.5072L286.227 16.7234H286.86L287.256 16.4094C287.271 16.0182 287.23 15.6271 287.241 15.2359L287.21 14.8035L286.865 14.6079C286.638 14.6131 286.407 14.6182 286.18 14.6234ZM281.126 14.9374C281.1 15.2307 281.136 15.5241 281.136 15.8124C281.141 16.0697 281.116 16.3322 281.136 16.5896C281.347 16.8366 281.687 16.7388 281.97 16.7543L282.485 16.5896C282.531 16.219 282.51 15.8432 282.516 15.4727C282.5 15.2256 282.546 14.9579 282.428 14.7315C282.15 14.5771 281.831 14.6749 281.533 14.6491L281.121 14.9374M283.519 14.9477C283.494 15.3543 283.53 15.766 283.519 16.1727L283.576 16.6153L283.931 16.744C284.178 16.744 284.425 16.7594 284.672 16.7182L284.94 16.4918C284.919 16.0749 284.904 15.6579 284.93 15.2359L284.868 14.7932L284.518 14.6337C284.286 14.6337 284.06 14.6337 283.828 14.644L283.519 14.9477ZM249.945 19.1425L249.749 19.6263C249.734 20.1977 249.749 20.769 249.734 21.3403L249.873 21.9477C250.089 22.1535 250.408 22.1999 250.691 22.1793L251.077 21.891L251.144 21.2888C251.144 20.7021 251.16 20.1153 251.16 19.5285L251.031 19.1734L250.485 19.0704L249.945 19.1374M252.143 19.58C252.133 20.1822 252.143 20.7896 252.122 21.3918L252.313 22.0043C252.524 22.2153 252.843 22.205 253.121 22.1896C253.316 22.1072 253.507 21.9477 253.538 21.7263C253.558 21.0109 253.553 20.2954 253.558 19.58L253.378 19.1631L253.074 19.1116H252.446L252.143 19.58ZM254.583 19.2557C254.397 19.5079 254.48 19.8271 254.464 20.1153C254.438 20.5734 254.464 21.0263 254.444 21.4844L254.675 22.0712C254.963 22.2462 255.355 22.2925 255.643 22.0969L255.874 21.7778C255.874 21.0624 255.9 20.3418 255.89 19.6263L255.766 19.2249L255.128 19.1219L254.588 19.2506M281.157 19.7241C281.116 20.3109 281.183 20.8977 281.167 21.4896C281.177 21.7109 281.11 21.9682 281.26 22.1535C281.419 22.38 281.713 22.4418 281.975 22.4315C282.248 22.4109 282.541 22.2204 282.557 21.9271C282.562 21.191 282.557 20.4602 282.541 19.7293L282.356 19.3587C282.109 19.2763 281.841 19.3278 281.584 19.3175C281.358 19.3072 281.152 19.4977 281.152 19.7293M283.838 19.3175L283.54 19.7756C283.535 20.2337 283.54 20.6866 283.555 21.1447C283.555 21.3918 283.586 21.6388 283.545 21.8859L283.756 22.2565C284.06 22.5035 284.528 22.4727 284.821 22.2307L284.971 21.7315C284.955 21.0315 284.986 20.3366 284.94 19.6366L284.821 19.3896L284.523 19.2969C284.296 19.3021 284.065 19.2866 283.844 19.3227M285.871 19.7241C285.882 20.4396 285.871 21.1602 285.897 21.8704L285.969 22.0712C286.196 22.4624 286.793 22.4932 287.127 22.2256C287.349 22.0454 287.318 21.7366 287.308 21.4844C287.277 20.8925 287.318 20.3057 287.282 19.7138L287.112 19.3278C286.86 19.2454 286.587 19.2763 286.33 19.2712C286.083 19.2557 285.861 19.4822 285.877 19.7241" fill="#16498E"/>
<path d="M284.421 32.8955C284.678 32.8441 284.941 32.8544 285.203 32.8544L285.79 32.8801C286.058 32.9419 286.33 32.9058 286.593 32.9933C287.19 33.1014 287.761 33.3588 288.23 33.7396L288.755 34.2801C289.12 34.7485 289.377 35.2889 289.568 35.8448C289.022 36.0044 288.456 36.0816 287.911 36.2411C287.581 36.3132 287.252 36.3955 286.917 36.4522C286.819 36.1691 286.706 35.8808 286.495 35.6647C285.867 34.9441 284.652 34.9492 283.963 35.572C283.747 35.7779 283.566 36.0249 283.463 36.3029C283.355 36.5448 283.355 36.8124 283.304 37.0698C283.237 37.3889 283.268 37.7132 283.252 38.0374C283.227 38.3926 283.294 38.7374 283.335 39.0926C283.381 39.4271 283.505 39.7514 283.695 40.0345C284.035 40.4463 284.575 40.6676 285.105 40.6367C285.574 40.6676 286.068 40.508 286.392 40.158C286.686 39.8286 286.886 39.422 286.974 38.9948L287.046 38.7426C287.859 38.9896 288.672 39.2367 289.491 39.4735L289.64 39.6073C289.444 40.3845 289.11 41.1514 288.544 41.7279C288.199 42.0933 287.777 42.4073 287.298 42.572C286.788 42.8088 286.222 42.8602 285.666 42.9014C284.889 42.9272 284.102 42.9014 283.35 42.7058C282.81 42.572 282.305 42.3095 281.878 41.9544C281.43 41.5426 281.034 41.0742 280.761 40.5286C280.483 40.0036 280.37 39.4117 280.277 38.8301C280.149 37.5588 280.252 36.2154 280.854 35.0676C281.152 34.5014 281.595 34.0124 282.13 33.6624C282.8 33.1889 283.618 33.0036 284.421 32.911" fill="#16498E"/>
<path d="M268.722 33.3276C269.401 33.1732 270.101 33.096 270.801 33.1166C271.094 33.1577 271.393 33.1268 271.681 33.2041C272.34 33.3121 272.994 33.5746 273.488 34.0276C273.766 34.2386 273.966 34.5217 274.178 34.7893C274.394 35.1702 274.584 35.5717 274.713 35.9886C274.172 36.1379 273.627 36.2768 273.091 36.4313C272.767 36.5136 272.458 36.6423 272.124 36.668C271.954 36.0813 271.486 35.5408 270.863 35.4276C270.605 35.3864 270.317 35.3401 270.08 35.4688C269.833 35.5974 269.55 35.6695 269.334 35.8496C269.118 36.0246 268.953 36.2563 268.825 36.4982C268.706 36.7864 268.624 37.0952 268.588 37.4041C268.608 37.8416 268.588 38.2842 268.598 38.7217C268.65 39.1592 268.66 39.6224 268.876 40.0188C269.061 40.4357 269.453 40.7342 269.89 40.8526C270.132 40.9246 270.389 40.8783 270.631 40.9041C271.084 40.8629 271.547 40.6518 271.81 40.271C272.093 39.8901 272.227 39.4217 272.314 38.9585C273.194 39.1695 274.069 39.4166 274.934 39.6688C274.764 40.5386 274.399 41.3982 273.776 42.0416C273.303 42.4688 272.747 42.8342 272.119 42.9835C271.146 43.2254 270.127 43.2254 269.133 43.0916C268.737 42.9629 268.32 42.8702 267.939 42.7004C267.548 42.5511 267.224 42.2783 266.915 42.0055L266.452 41.4908C266.225 41.1871 266.019 40.8732 265.88 40.518C265.536 39.6894 265.453 38.7732 265.479 37.8827C265.525 36.807 265.788 35.6952 266.477 34.8408C266.694 34.5217 266.987 34.2695 267.306 34.0585C267.6 33.8371 267.939 33.6724 268.294 33.5644L268.32 33.4769L268.716 33.3276" fill="#16498E"/>
<path d="M248.513 33.1475C249.831 33.1475 251.154 33.1475 252.472 33.1732C252.868 34.7585 253.264 36.3438 253.635 37.9342C253.753 38.3151 253.81 38.7166 253.938 39.0975C254.155 38.1607 254.422 37.2394 254.669 36.3129C254.896 35.4328 255.148 34.568 255.364 33.6879L255.472 33.1989C256.183 33.1989 256.898 33.1989 257.608 33.2247C258.226 33.2607 258.849 33.2401 259.466 33.2453C259.425 33.7651 259.477 34.2901 259.436 34.81C259.446 35.4945 259.425 36.1739 259.41 36.8636C259.394 38.1144 259.394 39.3651 259.358 40.621C259.358 41.3725 259.333 42.1239 259.353 42.8754C258.519 42.8754 257.691 42.8754 256.852 42.8754C256.877 42.5305 256.877 42.1857 256.857 41.846C256.898 41.5372 256.872 41.2232 256.877 40.9144C256.836 40.4614 256.924 40.0033 256.898 39.5504C256.913 38.9122 256.898 38.2791 256.913 37.646C256.96 37.157 256.898 36.668 256.949 36.1842V35.618C256.28 38.0269 255.627 40.4408 254.973 42.8497C254.237 42.8291 253.506 42.8445 252.77 42.8291C252.585 42.232 252.466 41.6195 252.297 41.0173C251.874 39.185 251.37 37.3732 250.969 35.5408C250.917 35.9835 250.958 36.4261 250.927 36.8636C250.917 38.8453 250.881 40.8269 250.861 42.8136C250.037 42.8342 249.208 42.8033 248.385 42.8136C248.405 42.1651 248.405 41.5217 248.405 40.8732C248.447 40.2864 248.405 39.6945 248.441 39.1078C248.441 37.8673 248.462 36.6372 248.457 35.4019C248.493 34.6504 248.488 33.9041 248.493 33.1526" fill="#16498E"/>
</svg>
